<?xml version="1.0" encoding="utf-8"?>
<!-- Generator: Adobe Illustrator 22.1.0, SVG Export Plug-In . SVG Version: 6.00 Build 0)  -->
<svg version="1.1" id="Layer_1" xmlns="http://www.w3.org/2000/svg" xmlns:xlink="http://www.w3.org/1999/xlink" x="0px" y="0px"
	 viewBox="0 0 918 768" style="enable-background:new 0 0 918 768;" xml:space="preserve">
<style type="text/css">
	.st0{fill:#FFFFFF;}
</style>
<g>
	<path class="st0" d="M77,338h48.9c26.8,0,37.2,17,37.2,34.5S152.7,407,125.9,407H101v39H77V338z M101,388h18.2
		c10.9,0,20.6-2.4,20.6-16s-9.7-16-20.6-16H101V388z"/>
	<path class="st0" d="M177,338h24v88h52v20h-76V338z"/>
	<path class="st0" d="M296.1,338h24.4l40.4,108h-24.7l-8.2-24h-40.3l-8.5,24h-24.1L296.1,338z M294.1,404h27.5l-13.4-39h-0.3
		L294.1,404z"/>
	<path class="st0" d="M370,338h24.1l44.6,72h0.3v-72h22v107h-23.8l-44.9-72H392v73h-22V338z"/>
	<path class="st0" d="M482,338h21.1l46.6,72h0.3v-72h23v107h-23.8l-44.9-72H504v73h-22V338z"/>
	<path class="st0" d="M593,338h24v108h-24V338z"/>
	<path class="st0" d="M638,338h23.1l44.6,72h0.3v-72h22v107h-23.4l-44.3-72H660v73h-22V338z"/>
	<path class="st0" d="M826.6,432.8c-8.3,10.7-19.1,14.7-29.5,14.7c-33.2,0-52.8-24.8-52.8-55.8c0-31.9,19.5-56.7,52.8-56.7
		c21.9,0,42.7,13.5,45.2,37.9h-21.8c-2.7-12-11.7-18.3-23-18.3c-21.5,0-29.6,18.3-29.6,37.3c0,18.1,8.1,36.4,29.6,36.4
		c15.5,0,24.5-8.4,25.9-23.5H799v-18h45v58h-15L826.6,432.8z"/>
</g>
<g>
	<polygon class="st0" points="823.7,184 842,168.4 842,123.7 793.5,77 634.4,77 585,123.4 585,95.5 568.8,78 504.5,78 487,94.2 
		487,124.1 455.7,153 424,123.1 424,93.2 409.1,76 343.1,76 330.9,89.4 316.8,76 251.2,76 234,93.6 234,151.5 155.4,75.9 93.5,76 
		74,93.2 74,306.5 91.3,323 154,323 170.3,307.5 170,245.1 250.3,323 314.7,323 330.8,308.5 330.9,186.4 407,260.1 407,305.5 
		423.2,323 488.8,323 505,304.5 505,263.3 585,187.1 585,277.1 634.4,324 790.1,324 841.5,274 842,234 824.5,217 745,217 745,229 
		681,229 681,169 746,169 746,184 	"/>
</g>
<path class="st0" d="M832.7,86.9c1.6,0,3-0.2,3-2c0-1.6-1.5-1.7-2.8-1.7h-2.6V87L832.7,86.9L832.7,86.9L832.7,86.9z M830.3,94.2
	h-2.1V81.3h4.9c3.1,0,4.7,1.1,4.7,3.7c0,2.3-1.4,3.3-3.4,3.5l3.6,5.7h-2.4l-3.3-5.5h-2V94.2z M832.6,77.9c-5,0-9,4-9,9.6
	c0,5.3,3.4,9.6,9,9.6c5,0,8.9-3.9,8.9-9.6C841.5,81.9,837.6,77.9,832.6,77.9 M832.6,99.2c-6.7,0-11.5-5-11.5-11.7
	c0-7,5.3-11.7,11.5-11.7c6.1,0,11.4,4.6,11.4,11.7S838.7,99.2,832.6,99.2"/>
<g>
	<path class="st0" d="M77,475h76v167h102v59H77V475z"/>
	<path class="st0" d="M427.4,541.9c16.4,13.9,24.6,35.3,24.6,64.1v95h-68v-23.3c-8.4,17.7-25.1,26.5-50.2,26.5
		c-14,0-26-2.4-35.8-7.3c-9.8-4.8-17.3-11.4-22.3-19.7c-5.1-8.3-7.6-17.6-7.6-27.9c0-17.4,6.7-30.7,20.1-39.7s33.7-13.6,60.9-13.6
		h29.5c-2.4-13.8-13.5-20.7-33.4-20.7c-8,0-16.1,1.2-24.3,3.7c-8.2,2.5-15.2,5.9-21,10.2l-23.3-48.1c10.1-6.2,22.4-11.1,36.8-14.7
		c14.4-3.6,28.7-5.3,42.9-5.3C387.2,521,411,528,427.4,541.9z M370,655.9c4.1-2.8,7.1-7,9-12.6V631h-18.1
		c-14.8,0-22.3,4.9-22.3,14.8c0,4.1,1.6,7.5,4.7,10.2s7.4,4,12.8,4C361.2,660,365.9,658.6,370,655.9z"/>
	<path class="st0" d="M627.9,532.3c13,7.4,23.3,18.1,31,32c7.6,13.9,11.5,30,11.5,48.3s-3.8,34.4-11.5,48.4c-7.6,14-18,24.7-31,32.1
		c-13,7.4-27.3,11.1-42.8,11.1c-21.7,0-48.1-17.8-48.1-17.8V701h-69V462h72v74.4c10.6-10.1,25.6-15.2,45.1-15.2
		C600.6,521.2,614.9,524.9,627.9,532.3z M588.4,638.2c5.4-6.1,8.1-14.7,8.1-25.7s-2.7-19.5-8.1-25.5c-5.4-6-12.3-9-20.7-9
		s-15.3,3-20.7,9s-8.1,14.5-8.1,25.5s2.7,19.5,8.1,25.7c5.4,6.1,12.3,9.2,20.7,9.2C576.1,647.4,583,644.3,588.4,638.2z"/>
	<path class="st0" d="M708.1,699.4c-14.6-3.2-26.5-7.4-35.5-12.6l20-48.1c8.2,5,17.9,8.8,29,11.6c11.2,2.8,22.1,4.2,32.6,4.2
		c8.4,0,14.3-0.7,17.6-2.1c3.3-1.4,5-3.5,5-6.3s-2.1-4.7-6.3-5.8s-11-2.1-20.5-3.2c-14.4-1.7-26.7-3.9-36.8-6.6
		c-10.1-2.7-19-7.9-26.6-15.7c-7.6-7.7-11.5-18.8-11.5-33.2c0-11.4,3.4-21.6,10.3-30.7c6.9-9,17.2-16.2,30.8-21.6
		c13.7-5.4,30.1-8.1,49.2-8.1c13.3,0,26.4,1.2,39.2,3.7s23.7,6.1,32.8,10.8l-20,48.1c-15.5-8.6-32.5-12.9-51-12.9
		c-15.9,0-23.9,2.8-23.9,8.4c0,2.8,2.1,4.8,6.5,6c4.3,1.2,11.1,2.3,20.3,3.4c14.4,1.7,26.6,4,36.6,6.8s18.8,8.1,26.5,15.8
		c7.6,7.7,11.5,18.8,11.5,33.2c0,11-3.4,21-10.3,30c-6.9,9-17.2,16.2-31,21.6c-13.8,5.4-30.5,8.1-50,8.1
		C737.6,704.2,722.7,702.6,708.1,699.4z"/>
</g>
</svg>
